<svg width="667" height="667" viewBox="0 0 667 667" fill="none" xmlns="http://www.w3.org/2000/svg">
<path fill-rule="evenodd" clip-rule="evenodd" d="M366.667 233.333C366.667 214.924 351.743 200 333.333 200C314.923 200 300 214.924 300 233.333V300H233.333C214.924 300 200 314.923 200 333.333C200 351.743 214.924 366.667 233.333 366.667H300V433.333C300 451.743 314.923 466.667 333.333 466.667C351.743 466.667 366.667 451.743 366.667 433.333V366.667H433.333C451.743 366.667 466.667 351.743 466.667 333.333C466.667 314.923 451.743 300 433.333 300H366.667V233.333ZM175.002 12.9273C218.293 3.30667 270.81 0 333.333 0C395.857 0 448.373 3.30667 491.663 12.9273C535.333 22.6323 571.627 39.2 599.547 67.1193C627.467 95.0387 644.033 131.334 653.74 175.002C663.36 218.293 666.667 270.81 666.667 333.333C666.667 395.857 663.36 448.373 653.74 491.663C644.033 535.333 627.467 571.627 599.547 599.547C571.627 627.467 535.333 644.033 491.663 653.74C448.373 663.36 395.857 666.667 333.333 666.667C270.81 666.667 218.293 663.36 175.002 653.74C131.334 644.033 95.0387 627.467 67.1193 599.547C39.2 571.627 22.6323 535.333 12.9273 491.663C3.30667 448.373 0 395.857 0 333.333C0 270.81 3.30667 218.293 12.9273 175.002C22.6323 131.334 39.2 95.0387 67.1193 67.1193C95.0387 39.2 131.334 22.6323 175.002 12.9273Z" fill="#323232"/>
</svg>
