<svg width="667" height="667" viewBox="0 0 667 667" fill="none" xmlns="http://www.w3.org/2000/svg">
<path fill-rule="evenodd" clip-rule="evenodd" d="M175.002 12.9273C218.293 3.30667 270.81 0 333.333 0C395.857 0 448.373 3.30667 491.663 12.9273C535.333 22.6323 571.627 39.2 599.547 67.1193C627.467 95.0387 644.033 131.334 653.74 175.002C663.36 218.293 666.667 270.81 666.667 333.333C666.667 395.857 663.36 448.373 653.74 491.663C644.033 535.333 627.467 571.627 599.547 599.547C571.627 627.467 535.333 644.033 491.663 653.74C448.373 663.36 395.857 666.667 333.333 666.667C270.81 666.667 218.293 663.36 175.002 653.74C131.334 644.033 95.0387 627.467 67.1193 599.547C39.2 571.627 22.6323 535.333 12.9273 491.663C3.30667 448.373 0 395.857 0 333.333C0 270.81 3.30667 218.293 12.9273 175.002C22.6323 131.334 39.2 95.0387 67.1193 67.1193C95.0387 39.2 131.334 22.6323 175.002 12.9273ZM456.903 243.096C469.92 256.114 469.92 277.22 456.903 290.237L334.143 412.997C315.287 431.853 284.713 431.853 265.856 412.997L209.763 356.903C196.746 343.887 196.746 322.78 209.763 309.763C222.781 296.747 243.886 296.747 256.904 309.763L300 352.86L409.763 243.096C422.78 230.079 443.887 230.079 456.903 243.096Z" fill="#D9D9D9"/>
</svg>
