<svg width="667" height="667" viewBox="0 0 667 667" fill="none" xmlns="http://www.w3.org/2000/svg">
<path d="M333.333 0C395.856 0 448.373 3.3071 491.663 12.9277C535.333 22.6327 571.627 39.1998 599.547 67.1191C627.467 95.0384 644.034 131.334 653.74 175.002C663.36 218.292 666.667 270.81 666.667 333.333C666.667 395.856 663.36 448.373 653.74 491.663C644.034 535.333 627.467 571.627 599.547 599.547C571.627 627.467 535.333 644.034 491.663 653.74C448.373 663.36 395.856 666.667 333.333 666.667C270.81 666.667 218.292 663.36 175.002 653.74C131.334 644.034 95.0384 627.467 67.1191 599.547C39.1998 571.627 22.6327 535.333 12.9277 491.663C3.3071 448.373 0 395.856 0 333.333C1.1029e-05 270.81 3.30708 218.292 12.9277 175.002C22.6327 131.334 39.1999 95.0384 67.1191 67.1191C95.0384 39.1999 131.334 22.6327 175.002 12.9277C218.292 3.30708 270.81 1.10314e-05 333.333 0ZM245.6 165C217.654 165 195 187.632 195 215.55V451.45C195 479.369 217.654 502 245.6 502H405.833C429.121 502 448 483.14 448 459.875V413.244C445.502 411.802 443.151 410.014 441.014 407.879C429.976 396.852 428.187 380.089 435.644 367.2H380.533C361.902 367.2 346.8 352.112 346.8 333.5C346.8 314.888 361.902 299.8 380.533 299.8H435.644C428.187 286.912 429.976 270.146 441.014 259.12C443.151 256.985 445.502 255.197 448 253.755V207.125C448 183.86 429.121 165 405.833 165H245.6ZM476.35 270.942C469.75 264.353 459.05 264.353 452.45 270.942C445.851 277.533 445.851 288.217 452.45 294.808L474.3 316.625H379.9C370.567 316.625 363 324.18 363 333.5C363 342.82 370.567 350.375 379.9 350.375H474.3L452.45 372.193C445.851 378.783 445.851 389.468 452.45 396.058C459.05 402.647 469.75 402.647 476.35 396.058L525.58 346.9C525.833 346.647 526.08 346.388 526.316 346.123C529.803 343.032 532 338.522 532 333.5C532 328.478 529.803 323.969 526.316 320.878C526.08 320.613 525.834 320.353 525.58 320.1L476.35 270.942Z" fill="#D9D9D9"/>
</svg>
