<svg width="667" height="667" viewBox="0 0 667 667" fill="none" xmlns="http://www.w3.org/2000/svg">
<path fill-rule="evenodd" clip-rule="evenodd" d="M175.002 12.9273C218.293 3.30667 270.81 0 333.333 0C395.857 0 448.373 3.30667 491.663 12.9273C535.333 22.6323 571.627 39.2 599.547 67.1193C627.467 95.0387 644.033 131.334 653.74 175.002C663.36 218.293 666.667 270.81 666.667 333.333C666.667 395.857 663.36 448.373 653.74 491.663C644.033 535.333 627.467 571.627 599.547 599.547C571.627 627.467 535.333 644.033 491.663 653.74C448.373 663.36 395.857 666.667 333.333 666.667C270.81 666.667 218.293 663.36 175.002 653.74C131.334 644.033 95.0387 627.467 67.1193 599.547C39.2 571.627 22.6323 535.333 12.9273 491.663C3.30667 448.373 0 395.857 0 333.333C0 270.81 3.30667 218.293 12.9273 175.002C22.6323 131.334 39.2 95.0387 67.1193 67.1193C95.0387 39.2 131.334 22.6323 175.002 12.9273ZM333.333 133.333C259.695 133.333 200 193.029 200 266.667C200 340.303 259.695 400 333.333 400C406.97 400 466.667 340.303 466.667 266.667C466.667 193.029 406.97 133.333 333.333 133.333ZM545.917 509.807C557.677 528.983 553.517 554.333 534.563 566.45C517.33 577.47 497.193 584.217 477.197 588.66C441.073 596.687 394.33 600 333.327 600C272.327 600 225.581 596.687 189.46 588.66C169.839 584.3 150.068 577.73 133.044 567.067C113.749 554.983 109.508 529.287 121.558 509.97C135.434 487.727 154.559 470.25 180.294 457.813C219.341 438.947 270.523 433.333 333.32 433.333C395.903 433.333 447.03 438.493 486.023 456.823C512.423 469.233 531.907 486.963 545.917 509.807Z" fill="#D9D9D9"/>
</svg>
