<svg width="602" height="601" viewBox="0 0 602 601" fill="none" xmlns="http://www.w3.org/2000/svg">
<path d="M576.667 348.596C568.268 345.979 559.175 346.787 551.37 350.846C543.565 354.905 537.681 361.884 535 370.263C519.252 418.412 488.552 460.281 447.366 489.776C406.179 519.272 356.656 534.857 306 534.263C243.345 534.975 182.965 510.812 138.099 467.071C93.2336 423.33 67.5451 363.583 66.6667 300.93C67.5451 238.277 93.2336 178.529 138.099 134.788C182.965 91.0477 243.345 66.8842 306 67.5963C362.586 67.4597 417.43 87.1566 461 123.263L388.667 111.263C384.332 110.55 379.898 110.7 375.622 111.706C371.345 112.713 367.309 114.554 363.747 117.125C360.184 119.696 357.165 122.946 354.863 126.688C352.561 130.43 351.022 134.591 350.333 138.93C349.62 143.265 349.771 147.698 350.777 151.975C351.783 156.251 353.624 160.287 356.196 163.849C358.767 167.412 362.017 170.431 365.759 172.733C369.501 175.035 373.661 176.574 378 177.263L519.333 200.596H525C528.865 200.592 532.7 199.915 536.333 198.596C537.554 198.133 538.683 197.456 539.667 196.596C542.057 195.708 544.303 194.472 546.333 192.93L549.333 189.263C549.333 187.596 552.333 186.263 553.667 184.263C555 182.263 553.667 180.93 555.333 179.596C556.254 177.655 557.034 175.65 557.667 173.596L582.667 40.263C583.498 35.8856 583.46 31.3873 582.553 27.0248C581.646 22.6623 579.889 18.5212 577.382 14.8378C574.875 11.1544 571.667 8.0009 567.941 5.55735C564.215 3.11379 560.044 1.42804 555.667 0.596333C551.289 -0.235372 546.791 -0.196742 542.428 0.710019C538.066 1.61678 533.925 3.37391 530.241 5.8811C522.802 10.9446 517.68 18.7558 516 27.5963L507 75.9297C451.2 27.571 379.839 0.944025 306 0.929666C225.664 0.218575 148.328 31.4062 90.9601 87.649C33.5925 143.892 0.879696 220.596 0 300.93C0.879696 381.264 33.5925 457.967 90.9601 514.21C148.328 570.453 225.664 601.641 306 600.93C371.105 601.93 434.81 582 487.738 544.075C540.665 506.15 580.017 452.233 600 390.263C601.264 385.995 601.661 381.518 601.167 377.094C600.673 372.671 599.298 368.391 597.123 364.507C594.949 360.624 592.018 357.215 588.505 354.482C584.991 351.75 580.966 349.748 576.667 348.596Z" fill="#AD68F6"/>
</svg>
