<svg width="667" height="667" viewBox="0 0 667 667" fill="none" xmlns="http://www.w3.org/2000/svg">
<path fill-rule="evenodd" clip-rule="evenodd" d="M175.002 12.9273C218.293 3.30667 270.81 0 333.333 0C395.857 0 448.373 3.30667 491.663 12.9273C535.333 22.6323 571.627 39.2 599.547 67.1193C627.467 95.0387 644.033 131.334 653.74 175.002C663.36 218.293 666.667 270.81 666.667 333.333C666.667 395.857 663.36 448.373 653.74 491.663C644.033 535.333 627.467 571.627 599.547 599.547C571.627 627.467 535.333 644.033 491.663 653.74C448.373 663.36 395.857 666.667 333.333 666.667C270.81 666.667 218.293 663.36 175.002 653.74C131.334 644.033 95.0387 627.467 67.1193 599.547C39.2 571.627 22.6323 535.333 12.9273 491.663C3.30667 448.373 0 395.857 0 333.333C0 270.81 3.30667 218.293 12.9273 175.002C22.6323 131.334 39.2 95.0387 67.1193 67.1193C95.0387 39.2 131.334 22.6323 175.002 12.9273ZM233.333 316.667C233.333 270.643 270.643 233.333 316.667 233.333C362.69 233.333 400 270.643 400 316.667C400 362.69 362.69 400 316.667 400C270.643 400 233.333 362.69 233.333 316.667ZM316.667 166.667C233.824 166.667 166.667 233.824 166.667 316.667C166.667 399.51 233.824 466.667 316.667 466.667C346.017 466.667 373.4 458.237 396.523 443.667L443.097 490.237C456.113 503.253 477.22 503.253 490.237 490.237C503.253 477.22 503.253 456.113 490.237 443.097L443.667 396.523C458.237 373.4 466.667 346.017 466.667 316.667C466.667 233.824 399.51 166.667 316.667 166.667Z" fill="#323232"/>
</svg>
