<svg width="667" height="667" viewBox="0 0 667 667" fill="none" xmlns="http://www.w3.org/2000/svg">
<path d="M333.333 0C395.856 2.15201e-06 448.373 3.30609 491.663 12.9268C535.333 22.6317 571.626 39.1999 599.546 67.1191C627.466 95.0384 644.033 131.334 653.739 175.002C663.359 218.292 666.666 270.81 666.666 333.333C666.666 395.856 663.359 448.373 653.739 491.663C644.033 535.333 627.466 571.627 599.546 599.547C571.626 627.467 535.333 644.033 491.663 653.739C448.373 663.359 395.856 666.666 333.333 666.666C270.81 666.666 218.292 663.359 175.002 653.739C131.334 644.033 95.0384 627.467 67.1191 599.547C39.1998 571.627 22.6318 535.333 12.9268 491.663C3.30609 448.373 0 395.856 0 333.333C0 270.81 3.30609 218.292 12.9268 175.002C22.6318 131.334 39.1998 95.0385 67.1191 67.1191C95.0385 39.1998 131.334 22.6318 175.002 12.9268C218.292 3.3061 270.81 0 333.333 0ZM274.702 409.5C227.373 409.5 189.29 413.347 160.265 425.863C128.615 439.513 109.362 462.779 99.2725 495.645C94.5357 511.074 106.205 526.5 122.271 526.5H427.178C443.224 526.5 454.868 511.098 450.146 495.696C440.071 462.836 420.847 439.562 389.219 425.898C360.183 413.354 322.072 409.5 274.702 409.5ZM451.119 385.517C434.476 385.517 417.092 385.303 399.901 386.372C390.18 386.976 389.61 400.044 398.542 403.931C423.019 414.581 441.449 430.26 454.667 450.271C465.513 466.692 482.356 479.5 502.026 479.5H543.838C560.444 479.5 572.56 462.989 566.718 446.859C566.382 445.931 566.032 445.01 565.671 444.097C557.631 423.782 543.85 408.827 523.444 399.295C504.286 390.345 480.302 386.652 452.047 385.536L451.582 385.517H451.119ZM274.208 173.5C215.666 173.5 168.208 220.958 168.208 279.5C168.208 338.042 215.666 385.5 274.208 385.5C332.75 385.5 380.208 338.042 380.208 279.5C380.208 220.958 332.75 173.5 274.208 173.5ZM438.916 197.5C420.598 197.5 403.676 203.464 390.002 213.551C388.161 214.91 387.708 217.427 388.777 219.447C398.274 237.379 403.648 257.815 403.648 279.5C403.648 301.185 398.274 321.62 388.777 339.552C387.708 341.571 388.161 344.09 390.002 345.449C403.676 355.535 420.598 361.5 438.916 361.5C484.364 361.5 521.208 324.787 521.208 279.5C521.208 234.213 484.364 197.5 438.916 197.5Z" fill="#AD68F6"/>
</svg>
