<svg width="667" height="667" viewBox="0 0 667 667" fill="none" xmlns="http://www.w3.org/2000/svg">
<path fill-rule="evenodd" clip-rule="evenodd" d="M466.667 166.667C485.077 166.667 500 181.591 500 200V466.667C500 485.077 485.077 500 466.667 500C448.257 500 433.333 485.077 433.333 466.667V200C433.333 181.591 448.257 166.667 466.667 166.667ZM333.333 233.333C351.743 233.333 366.667 248.257 366.667 266.667V466.667C366.667 485.077 351.743 500 333.333 500C314.923 500 300 485.077 300 466.667V266.667C300 248.257 314.923 233.333 333.333 233.333ZM233.333 300C233.333 281.59 218.41 266.667 200 266.667C181.591 266.667 166.667 281.59 166.667 300V466.667C166.667 485.077 181.591 500 200 500C218.409 500 233.333 485.077 233.333 466.667V300ZM175.002 12.9273C218.293 3.30667 270.81 0 333.333 0C395.857 0 448.373 3.30667 491.663 12.9273C535.333 22.6323 571.627 39.2 599.547 67.1193C627.467 95.0387 644.033 131.334 653.74 175.002C663.36 218.293 666.667 270.81 666.667 333.333C666.667 395.857 663.36 448.373 653.74 491.663C644.033 535.333 627.467 571.627 599.547 599.547C571.627 627.467 535.333 644.033 491.663 653.74C448.373 663.36 395.857 666.667 333.333 666.667C270.81 666.667 218.293 663.36 175.002 653.74C131.334 644.033 95.0387 627.467 67.1193 599.547C39.2 571.627 22.6323 535.333 12.9273 491.663C3.30667 448.373 0 395.857 0 333.333C0 270.81 3.30667 218.293 12.9273 175.002C22.6323 131.334 39.2 95.0387 67.1193 67.1193C95.0387 39.2 131.334 22.6323 175.002 12.9273Z" fill="#323232"/>
</svg>
