<svg width="667" height="667" viewBox="0 0 667 667" fill="none" xmlns="http://www.w3.org/2000/svg">
<path d="M333.333 0C395.856 0 448.373 3.3061 491.663 12.9268C535.333 22.6318 571.627 39.1998 599.547 67.1191C627.467 95.0384 644.033 131.334 653.739 175.002C663.359 218.292 666.666 270.81 666.666 333.333C666.666 395.856 663.359 448.373 653.739 491.663C644.033 535.333 627.467 571.626 599.547 599.546C571.627 627.466 535.333 644.033 491.663 653.739C448.373 663.359 395.856 666.666 333.333 666.666C270.81 666.666 218.292 663.359 175.002 653.739C131.334 644.033 95.0384 627.466 67.1191 599.546C39.1999 571.626 22.6317 535.333 12.9268 491.663C3.3061 448.373 0 395.856 0 333.333C2.69001e-07 270.81 3.30609 218.292 12.9268 175.002C22.6318 131.334 39.1998 95.0385 67.1191 67.1191C95.0385 39.1998 131.334 22.6318 175.002 12.9268C218.292 3.3061 270.81 2.42154e-06 333.333 0ZM530.333 277.614C530.333 180.158 421.979 111.044 333.333 204.737C244.686 111.044 136.333 180.158 136.333 277.614C136.333 375.069 215.516 427.002 273.479 473.486C293.933 489.889 313.633 505.333 333.333 505.333C353.033 505.333 372.733 489.89 393.188 473.486C451.151 427.002 530.333 375.069 530.333 277.614Z" fill="#AD68F6"/>
</svg>
